# xmcd
#
# Track frame offsets:
#	150
#	14015
#	29566
#	45355
#	61080
#	75734
#	89545
#	106442
#	129098
#	144085
#	164531
#	181967
#	198135
#	210938
#	228657
#	240759
#	259723
#	275060
#	289672
#	306820
#
# Disc length: 4232
#
# Revision: 1
# Processed by: cddbd v1.5.1PL0 Copyright (c) Steve Scherf et al.
# Submitted via: VisiTrax 2.9.5.180 - For more info visit www.synapsa.com
# Normalized: r0:DSETVAR1
#
DISCID=09108614
DTITLE=Various Artist - CDX 315 April 2003
DYEAR=2003
DGENRE=
TTITLE0=Oak Ridge Boys - Absence of love
TTITLE1=Toby Keith/Willie Nelson - Beer for my horses
TTITLE2=Blake Shelton - Heavy liftin'
TTITLE3=Rushlow - I can't be your friend
TTITLE4=Kenny Rogers - I'm missing you
TTITLE5=Steve Wariner - I'm your man
TTITLE6=Patty Loveless - On your way home
TTITLE7=Kid Rock/Sheryl Crow - Picture
TTITLE8=George Strait - Tell me something bad about Tulsa
TTITLE9=Dixie Chicks - Truth no. 2
TTITLE10=Dierks Bentley - What was I thinkin'
TTITLE11=Rhonda Vincent - You can't take it with you when you go
TTITLE12=Duane Michaels - (If it weren't for country music) I'd go crazy
TTITLE13=Richard Frankz - Tell me why
TTITLE14=Vince Hatfield - The girl I dream about
TTITLE15=Tony Stampley - Dr. Jesus
TTITLE16=Harryman Smith - Red, white and blue
TTITLE17=Joy Ford - Soldier boy
TTITLE18=P C Rakes - The stars and stripes
TTITLE19=Kacey Jones - Never wear panties to a party
EXTD=
EXTT0=
EXTT1=
EXTT2=
EXTT3=
EXTT4=
EXTT5=
EXTT6=
EXTT7=
EXTT8=
EXTT9=
EXTT10=
EXTT11=
EXTT12=
EXTT13=
EXTT14=
EXTT15=
EXTT16=
EXTT17=
EXTT18=
EXTT19=
PLAYORDER=
